<svg width="45" height="22" viewBox="0 0 45 22" fill="none" xmlns="http://www.w3.org/2000/svg">
<rect x="2" y="2" width="43" height="18" rx="9" fill="white"/>
<circle cx="11" cy="11" r="11" fill="#C93E33"/>
<path fill-rule="evenodd" clip-rule="evenodd" d="M6 7C6 6.44772 6.44772 6 7 6H9.5C10.0523 6 10.5 6.44772 10.5 7V9.5C10.5 10.0523 10.0523 10.5 9.5 10.5H7C6.44772 10.5 6 10.0523 6 9.5V7ZM9.5 7H7V9.5H9.5V7ZM11.5 7C11.5 6.44772 11.9477 6 12.5 6H15C15.5523 6 16 6.44772 16 7V9.5C16 10.0523 15.5523 10.5 15 10.5H12.5C11.9477 10.5 11.5 10.0523 11.5 9.5V7ZM15 7H12.5V9.5H15V7ZM6 12.5C6 11.9477 6.44772 11.5 7 11.5H9.5C10.0523 11.5 10.5 11.9477 10.5 12.5V15C10.5 15.5523 10.0523 16 9.5 16H7C6.44772 16 6 15.5523 6 15V12.5ZM9.5 12.5H7V15H9.5V12.5ZM11.5 12.5C11.5 11.9477 11.9477 11.5 12.5 11.5H15C15.5523 11.5 16 11.9477 16 12.5V15C16 15.5523 15.5523 16 15 16H12.5C11.9477 16 11.5 15.5523 11.5 15V12.5ZM15 12.5H12.5V15H15V12.5Z" fill="white"/>
<path d="M29 9.99998C28.4477 9.99998 28 10.4477 28 11C28 11.5523 28.4477 12 29 12C29.5523 12 30 11.5523 30 11C30 10.4477 29.5523 9.99998 29 9.99998Z" fill="#C93E33"/>
<path d="M28 14.5C28 13.9477 28.4477 13.5 29 13.5C29.5523 13.5 30 13.9477 30 14.5C30 15.0523 29.5523 15.5 29 15.5C28.4477 15.5 28 15.0523 28 14.5Z" fill="#C93E33"/>
<path d="M32 10.5C31.7239 10.5 31.5 10.7238 31.5 11C31.5 11.2761 31.7239 11.5 32 11.5H38C38.2761 11.5 38.5 11.2761 38.5 11C38.5 10.7238 38.2761 10.5 38 10.5H32Z" fill="#C93E33"/>
<path d="M31.5 14.5C31.5 14.2238 31.7239 14 32 14H38C38.2761 14 38.5 14.2238 38.5 14.5C38.5 14.7761 38.2761 15 38 15H32C31.7239 15 31.5 14.7761 31.5 14.5Z" fill="#C93E33"/>
<path d="M32 6.99998C31.7239 6.99998 31.5 7.22384 31.5 7.49998C31.5 7.77612 31.7239 7.99998 32 7.99998H38C38.2761 7.99998 38.5 7.77612 38.5 7.49998C38.5 7.22384 38.2761 6.99998 38 6.99998H32Z" fill="#C93E33"/>
<path d="M29 6.57141C28.4477 6.57141 28 7.01911 28 7.57141C28 8.12371 28.4477 8.57141 29 8.57141C29.5523 8.57141 30 8.12371 30 7.57141C30 7.01911 29.5523 6.57141 29 6.57141Z" fill="#C93E33"/>
</svg>
